<svg xmlns="http://www.w3.org/2000/svg" xmlns:xlink="http://www.w3.org/1999/xlink" width="1920" zoomAndPan="magnify" viewBox="0 0 1440 809.999993" height="1080" preserveAspectRatio="xMidYMid meet" version="1.0"><defs><g/><clipPath id="d81f0e554a"><path d="M 431.707031 140.046875 L 1008.292969 140.046875 L 1008.292969 716.636719 L 431.707031 716.636719 Z M 431.707031 140.046875 " clip-rule="nonzero"/></clipPath><clipPath id="359011bcab"><path d="M 720 140.046875 C 560.78125 140.046875 431.707031 269.121094 431.707031 428.339844 C 431.707031 587.5625 560.78125 716.636719 720 716.636719 C 879.21875 716.636719 1008.292969 587.5625 1008.292969 428.339844 C 1008.292969 269.121094 879.21875 140.046875 720 140.046875 Z M 720 140.046875 " clip-rule="nonzero"/></clipPath></defs><g clip-path="url(#d81f0e554a)"><g clip-path="url(#359011bcab)"><path fill="#38b6ff" d="M 431.707031 140.046875 L 1008.292969 140.046875 L 1008.292969 716.636719 L 431.707031 716.636719 Z M 431.707031 140.046875 " fill-opacity="1" fill-rule="nonzero"/></g></g><g fill="#ffffff" fill-opacity="0.302"><g transform="translate(643.404246, 653.25288)"><g><path d="M 176.296875 -70.171875 C 183.460938 -73.023438 188.539062 -77.925781 191.53125 -84.875 C 194.351562 -91.425781 194.335938 -98.289062 191.484375 -105.46875 C 188.628906 -112.632812 183.726562 -117.710938 176.78125 -120.703125 C 169.945312 -123.410156 162.945312 -123.335938 155.78125 -120.484375 L 76.734375 -89.03125 C 72.316406 -87.269531 67.992188 -87.300781 63.765625 -89.125 C 59.515625 -90.957031 56.507812 -94.082031 54.75 -98.5 L 36.796875 -143.59375 C 35.046875 -148.007812 35.082031 -152.34375 36.90625 -156.59375 C 38.726562 -160.820312 41.847656 -163.816406 46.265625 -165.578125 L 102.96875 -188.140625 C 110.144531 -190.992188 115.222656 -195.894531 118.203125 -202.84375 C 121.035156 -209.40625 121.023438 -216.269531 118.171875 -223.4375 C 115.304688 -230.613281 110.398438 -235.691406 103.453125 -238.671875 C 96.617188 -241.398438 89.613281 -241.335938 82.4375 -238.484375 L 25.75 -215.90625 C 21.332031 -214.15625 17.003906 -214.195312 12.765625 -216.03125 C 8.535156 -217.84375 5.539062 -220.957031 3.78125 -225.375 L -8.078125 -255.1875 C -9.835938 -259.59375 -9.804688 -263.914062 -7.984375 -268.15625 C -6.160156 -272.40625 -3.039062 -275.40625 1.375 -277.15625 L 80.421875 -308.625 C 87.585938 -311.476562 92.664062 -316.375 95.65625 -323.3125 C 98.476562 -329.875 98.460938 -336.738281 95.609375 -343.90625 C 92.753906 -351.082031 87.851562 -356.160156 80.90625 -359.140625 C 74.070312 -361.859375 67.070312 -361.789062 59.90625 -358.9375 L -60.109375 -311.171875 C -67.273438 -308.316406 -72.351562 -303.414062 -75.34375 -296.46875 C -78.332031 -289.53125 -78.398438 -282.472656 -75.546875 -275.296875 L 19.5 -36.53125 C 22.351562 -29.351562 27.472656 -24.519531 34.859375 -22.03125 C 41.972656 -19.425781 49.113281 -19.550781 56.28125 -22.40625 Z M 176.296875 -70.171875 "/></g></g></g><g fill="#ffffff" fill-opacity="0.502"><g transform="translate(665.09518, 617.56967)"><g><path d="M 176.296875 -70.171875 C 183.460938 -73.023438 188.539062 -77.925781 191.53125 -84.875 C 194.351562 -91.425781 194.335938 -98.289062 191.484375 -105.46875 C 188.628906 -112.632812 183.726562 -117.710938 176.78125 -120.703125 C 169.945312 -123.410156 162.945312 -123.335938 155.78125 -120.484375 L 76.734375 -89.03125 C 72.316406 -87.269531 67.992188 -87.300781 63.765625 -89.125 C 59.515625 -90.957031 56.507812 -94.082031 54.75 -98.5 L 36.796875 -143.59375 C 35.046875 -148.007812 35.082031 -152.34375 36.90625 -156.59375 C 38.726562 -160.820312 41.847656 -163.816406 46.265625 -165.578125 L 102.96875 -188.140625 C 110.144531 -190.992188 115.222656 -195.894531 118.203125 -202.84375 C 121.035156 -209.40625 121.023438 -216.269531 118.171875 -223.4375 C 115.304688 -230.613281 110.398438 -235.691406 103.453125 -238.671875 C 96.617188 -241.398438 89.613281 -241.335938 82.4375 -238.484375 L 25.75 -215.90625 C 21.332031 -214.15625 17.003906 -214.195312 12.765625 -216.03125 C 8.535156 -217.84375 5.539062 -220.957031 3.78125 -225.375 L -8.078125 -255.1875 C -9.835938 -259.59375 -9.804688 -263.914062 -7.984375 -268.15625 C -6.160156 -272.40625 -3.039062 -275.40625 1.375 -277.15625 L 80.421875 -308.625 C 87.585938 -311.476562 92.664062 -316.375 95.65625 -323.3125 C 98.476562 -329.875 98.460938 -336.738281 95.609375 -343.90625 C 92.753906 -351.082031 87.851562 -356.160156 80.90625 -359.140625 C 74.070312 -361.859375 67.070312 -361.789062 59.90625 -358.9375 L -60.109375 -311.171875 C -67.273438 -308.316406 -72.351562 -303.414062 -75.34375 -296.46875 C -78.332031 -289.53125 -78.398438 -282.472656 -75.546875 -275.296875 L 19.5 -36.53125 C 22.351562 -29.351562 27.472656 -24.519531 34.859375 -22.03125 C 41.972656 -19.425781 49.113281 -19.550781 56.28125 -22.40625 Z M 176.296875 -70.171875 "/></g></g></g><g fill="#ffffff" fill-opacity="1"><g transform="translate(686.786043, 581.886457)"><g><path d="M 176.296875 -70.171875 C 183.460938 -73.023438 188.539062 -77.925781 191.53125 -84.875 C 194.351562 -91.425781 194.335938 -98.289062 191.484375 -105.46875 C 188.628906 -112.632812 183.726562 -117.710938 176.78125 -120.703125 C 169.945312 -123.410156 162.945312 -123.335938 155.78125 -120.484375 L 76.734375 -89.03125 C 72.316406 -87.269531 67.992188 -87.300781 63.765625 -89.125 C 59.515625 -90.957031 56.507812 -94.082031 54.75 -98.5 L 36.796875 -143.59375 C 35.046875 -148.007812 35.082031 -152.34375 36.90625 -156.59375 C 38.726562 -160.820312 41.847656 -163.816406 46.265625 -165.578125 L 102.96875 -188.140625 C 110.144531 -190.992188 115.222656 -195.894531 118.203125 -202.84375 C 121.035156 -209.40625 121.023438 -216.269531 118.171875 -223.4375 C 115.304688 -230.613281 110.398438 -235.691406 103.453125 -238.671875 C 96.617188 -241.398438 89.613281 -241.335938 82.4375 -238.484375 L 25.75 -215.90625 C 21.332031 -214.15625 17.003906 -214.195312 12.765625 -216.03125 C 8.535156 -217.84375 5.539062 -220.957031 3.78125 -225.375 L -8.078125 -255.1875 C -9.835938 -259.59375 -9.804688 -263.914062 -7.984375 -268.15625 C -6.160156 -272.40625 -3.039062 -275.40625 1.375 -277.15625 L 80.421875 -308.625 C 87.585938 -311.476562 92.664062 -316.375 95.65625 -323.3125 C 98.476562 -329.875 98.460938 -336.738281 95.609375 -343.90625 C 92.753906 -351.082031 87.851562 -356.160156 80.90625 -359.140625 C 74.070312 -361.859375 67.070312 -361.789062 59.90625 -358.9375 L -60.109375 -311.171875 C -67.273438 -308.316406 -72.351562 -303.414062 -75.34375 -296.46875 C -78.332031 -289.53125 -78.398438 -282.472656 -75.546875 -275.296875 L 19.5 -36.53125 C 22.351562 -29.351562 27.472656 -24.519531 34.859375 -22.03125 C 41.972656 -19.425781 49.113281 -19.550781 56.28125 -22.40625 Z M 176.296875 -70.171875 "/></g></g></g></svg>