<svg xmlns="http://www.w3.org/2000/svg" xmlns:xlink="http://www.w3.org/1999/xlink" width="1920" zoomAndPan="magnify" viewBox="0 0 1440 809.999993" height="1080" preserveAspectRatio="xMidYMid meet" version="1.0"><defs><g/><clipPath id="14444457a6"><path d="M 517.878906 330.980469 L 678.957031 330.980469 L 678.957031 492.0625 L 517.878906 492.0625 Z M 517.878906 330.980469 " clip-rule="nonzero"/></clipPath><clipPath id="ce7132221e"><path d="M 598.417969 330.980469 C 553.9375 330.980469 517.878906 367.039062 517.878906 411.519531 C 517.878906 456.003906 553.9375 492.0625 598.417969 492.0625 C 642.898438 492.0625 678.957031 456.003906 678.957031 411.519531 C 678.957031 367.039062 642.898438 330.980469 598.417969 330.980469 Z M 598.417969 330.980469 " clip-rule="nonzero"/></clipPath></defs><g clip-path="url(#14444457a6)"><g clip-path="url(#ce7132221e)"><path fill="#38b6ff" d="M 517.878906 330.980469 L 678.957031 330.980469 L 678.957031 492.0625 L 517.878906 492.0625 Z M 517.878906 330.980469 " fill-opacity="1" fill-rule="nonzero"/></g></g><g fill="#ffffff" fill-opacity="0.302"><g transform="translate(577.019661, 474.353028)"><g><path d="M 49.25 -19.609375 C 51.257812 -20.398438 52.679688 -21.765625 53.515625 -23.703125 C 54.296875 -25.535156 54.285156 -27.457031 53.484375 -29.46875 C 52.691406 -31.46875 51.328125 -32.882812 49.390625 -33.71875 C 47.484375 -34.476562 45.53125 -34.460938 43.53125 -33.671875 L 21.453125 -24.875 C 20.210938 -24.382812 19 -24.394531 17.8125 -24.90625 C 16.625 -25.414062 15.785156 -26.285156 15.296875 -27.515625 L 10.28125 -40.109375 C 9.78125 -41.347656 9.789062 -42.5625 10.3125 -43.75 C 10.820312 -44.9375 11.695312 -45.773438 12.9375 -46.265625 L 28.765625 -52.578125 C 30.773438 -53.367188 32.195312 -54.726562 33.03125 -56.65625 C 33.8125 -58.5 33.800781 -60.421875 33 -62.421875 C 32.195312 -64.421875 30.832031 -65.835938 28.90625 -66.671875 C 26.988281 -67.441406 25.03125 -67.429688 23.03125 -66.640625 L 7.1875 -60.328125 C 5.945312 -59.835938 4.742188 -59.847656 3.578125 -60.359375 C 2.390625 -60.859375 1.550781 -61.722656 1.0625 -62.953125 L -2.265625 -71.296875 C -2.753906 -72.523438 -2.738281 -73.734375 -2.21875 -74.921875 C -1.71875 -76.097656 -0.847656 -76.929688 0.390625 -77.421875 L 22.484375 -86.21875 C 24.484375 -87.007812 25.894531 -88.378906 26.71875 -90.328125 C 27.507812 -92.160156 27.507812 -94.082031 26.71875 -96.09375 C 25.914062 -98.09375 24.539062 -99.503906 22.59375 -100.328125 C 20.6875 -101.097656 18.734375 -101.082031 16.734375 -100.28125 L -16.796875 -86.9375 C -18.796875 -86.132812 -20.210938 -84.757812 -21.046875 -82.8125 C -21.890625 -80.882812 -21.910156 -78.914062 -21.109375 -76.90625 L 5.4375 -10.203125 C 6.238281 -8.203125 7.675781 -6.847656 9.75 -6.140625 C 11.726562 -5.421875 13.71875 -5.460938 15.71875 -6.265625 Z M 49.25 -19.609375 "/></g></g></g><g fill="#ffffff" fill-opacity="0.502"><g transform="translate(583.079421, 464.384211)"><g><path d="M 49.25 -19.609375 C 51.257812 -20.398438 52.679688 -21.765625 53.515625 -23.703125 C 54.296875 -25.535156 54.285156 -27.457031 53.484375 -29.46875 C 52.691406 -31.46875 51.328125 -32.882812 49.390625 -33.71875 C 47.484375 -34.476562 45.53125 -34.460938 43.53125 -33.671875 L 21.453125 -24.875 C 20.210938 -24.382812 19 -24.394531 17.8125 -24.90625 C 16.625 -25.414062 15.785156 -26.285156 15.296875 -27.515625 L 10.28125 -40.109375 C 9.78125 -41.347656 9.789062 -42.5625 10.3125 -43.75 C 10.820312 -44.9375 11.695312 -45.773438 12.9375 -46.265625 L 28.765625 -52.578125 C 30.773438 -53.367188 32.195312 -54.726562 33.03125 -56.65625 C 33.8125 -58.5 33.800781 -60.421875 33 -62.421875 C 32.195312 -64.421875 30.832031 -65.835938 28.90625 -66.671875 C 26.988281 -67.441406 25.03125 -67.429688 23.03125 -66.640625 L 7.1875 -60.328125 C 5.945312 -59.835938 4.742188 -59.847656 3.578125 -60.359375 C 2.390625 -60.859375 1.550781 -61.722656 1.0625 -62.953125 L -2.265625 -71.296875 C -2.753906 -72.523438 -2.738281 -73.734375 -2.21875 -74.921875 C -1.71875 -76.097656 -0.847656 -76.929688 0.390625 -77.421875 L 22.484375 -86.21875 C 24.484375 -87.007812 25.894531 -88.378906 26.71875 -90.328125 C 27.507812 -92.160156 27.507812 -94.082031 26.71875 -96.09375 C 25.914062 -98.09375 24.539062 -99.503906 22.59375 -100.328125 C 20.6875 -101.097656 18.734375 -101.082031 16.734375 -100.28125 L -16.796875 -86.9375 C -18.796875 -86.132812 -20.210938 -84.757812 -21.046875 -82.8125 C -21.890625 -80.882812 -21.910156 -78.914062 -21.109375 -76.90625 L 5.4375 -10.203125 C 6.238281 -8.203125 7.675781 -6.847656 9.75 -6.140625 C 11.726562 -5.421875 13.71875 -5.460938 15.71875 -6.265625 Z M 49.25 -19.609375 "/></g></g></g><g fill="#ffffff" fill-opacity="1"><g transform="translate(589.139205, 454.415392)"><g><path d="M 49.25 -19.609375 C 51.257812 -20.398438 52.679688 -21.765625 53.515625 -23.703125 C 54.296875 -25.535156 54.285156 -27.457031 53.484375 -29.46875 C 52.691406 -31.46875 51.328125 -32.882812 49.390625 -33.71875 C 47.484375 -34.476562 45.53125 -34.460938 43.53125 -33.671875 L 21.453125 -24.875 C 20.210938 -24.382812 19 -24.394531 17.8125 -24.90625 C 16.625 -25.414062 15.785156 -26.285156 15.296875 -27.515625 L 10.28125 -40.109375 C 9.78125 -41.347656 9.789062 -42.5625 10.3125 -43.75 C 10.820312 -44.9375 11.695312 -45.773438 12.9375 -46.265625 L 28.765625 -52.578125 C 30.773438 -53.367188 32.195312 -54.726562 33.03125 -56.65625 C 33.8125 -58.5 33.800781 -60.421875 33 -62.421875 C 32.195312 -64.421875 30.832031 -65.835938 28.90625 -66.671875 C 26.988281 -67.441406 25.03125 -67.429688 23.03125 -66.640625 L 7.1875 -60.328125 C 5.945312 -59.835938 4.742188 -59.847656 3.578125 -60.359375 C 2.390625 -60.859375 1.550781 -61.722656 1.0625 -62.953125 L -2.265625 -71.296875 C -2.753906 -72.523438 -2.738281 -73.734375 -2.21875 -74.921875 C -1.71875 -76.097656 -0.847656 -76.929688 0.390625 -77.421875 L 22.484375 -86.21875 C 24.484375 -87.007812 25.894531 -88.378906 26.71875 -90.328125 C 27.507812 -92.160156 27.507812 -94.082031 26.71875 -96.09375 C 25.914062 -98.09375 24.539062 -99.503906 22.59375 -100.328125 C 20.6875 -101.097656 18.734375 -101.082031 16.734375 -100.28125 L -16.796875 -86.9375 C -18.796875 -86.132812 -20.210938 -84.757812 -21.046875 -82.8125 C -21.890625 -80.882812 -21.910156 -78.914062 -21.109375 -76.90625 L 5.4375 -10.203125 C 6.238281 -8.203125 7.675781 -6.847656 9.75 -6.140625 C 11.726562 -5.421875 13.71875 -5.460938 15.71875 -6.265625 Z M 49.25 -19.609375 "/></g></g></g><g fill="#000000" fill-opacity="1"><g transform="translate(705.582691, 436.270896)"><g><path d="M 8.125 0 L 26.109375 0 C 28.90625 0 31.015625 -1.890625 31.015625 -4.6875 C 31.015625 -7.625 28.984375 -9.3125 26.046875 -9.3125 L 13.15625 -9.3125 L 13.15625 -20.375 L 24.703125 -20.375 C 27.65625 -20.375 29.609375 -22.125 29.609375 -24.984375 C 29.609375 -27.9375 27.515625 -29.6875 24.703125 -29.6875 L 13.234375 -29.6875 L 13.234375 -40.53125 L 25.625 -40.53125 C 28.421875 -40.53125 30.515625 -42.203125 30.515625 -45.15625 C 30.515625 -47.953125 28.421875 -49.84375 25.625 -49.84375 L 8.125 -49.84375 C 5.3125 -49.84375 3.078125 -47.734375 3.078125 -44.9375 L 3.078125 -4.96875 C 3.078125 -2.09375 5.3125 0 8.125 0 Z M 8.125 0 "/></g></g></g><g fill="#000000" fill-opacity="1"><g transform="translate(744.360931, 436.270896)"><g><path d="M 48.15625 -5.953125 L 45.015625 -8.890625 C 47.8125 -13.234375 49.421875 -18.6875 49.421875 -24.921875 C 49.421875 -40.390625 39.96875 -50.8125 25.546875 -50.8125 C 11.203125 -50.8125 1.75 -40.453125 1.75 -24.921875 C 1.75 -9.59375 11.125 0.984375 25.546875 0.984375 C 30.59375 0.984375 34.9375 -0.34375 38.4375 -2.65625 L 42.0625 0.625 C 43.75 2.234375 45.15625 3.21875 47.109375 3.21875 C 49.421875 3.21875 51.3125 1.40625 51.3125 -1.046875 C 51.3125 -2.734375 50.46875 -3.84375 48.15625 -5.953125 Z M 36.953125 -16.03125 L 35.484375 -17.4375 C 34.015625 -18.765625 32.40625 -19.734375 30.59375 -19.734375 C 28.140625 -19.734375 26.390625 -17.921875 26.390625 -15.46875 C 26.390625 -13.9375 27.15625 -12.875 28.625 -11.546875 L 30.875 -9.453125 C 29.40625 -8.6875 27.578125 -8.265625 25.546875 -8.265625 C 17.4375 -8.265625 12.59375 -15.125 12.59375 -24.921875 C 12.59375 -34.796875 17.5 -41.578125 25.484375 -41.578125 C 33.953125 -41.578125 38.5625 -34.578125 38.5625 -24.921875 C 38.5625 -21.625 38.015625 -18.625 36.953125 -16.03125 Z M 36.953125 -16.03125 "/></g></g></g><g fill="#000000" fill-opacity="1"><g transform="translate(802.10813, 436.270896)"><g><path d="M 23.875 0.984375 C 36.46875 0.984375 44.875 -7.34375 44.875 -19.109375 L 44.875 -45.015625 C 44.875 -48.296875 42.84375 -50.265625 39.828125 -50.265625 C 36.75 -50.265625 34.796875 -48.234375 34.796875 -45.015625 L 34.796875 -19.3125 C 34.796875 -13.09375 30.3125 -8.6875 23.796875 -8.6875 C 17.296875 -8.6875 12.875 -13.09375 12.875 -19.3125 L 12.875 -45.015625 C 12.875 -48.296875 10.921875 -50.265625 7.84375 -50.265625 C 4.828125 -50.265625 2.796875 -48.296875 2.796875 -45.015625 L 2.796875 -19.109375 C 2.796875 -7.421875 11.125 0.984375 23.875 0.984375 Z M 23.875 0.984375 "/></g></g></g><g fill="#000000" fill-opacity="1"><g transform="translate(856.425517, 436.270896)"><g><path d="M 8.125 0.421875 C 11.203125 0.421875 13.15625 -1.546875 13.15625 -4.828125 L 13.15625 -45.015625 C 13.15625 -48.296875 11.203125 -50.265625 8.125 -50.265625 C 5.109375 -50.265625 3.078125 -48.296875 3.078125 -45.015625 L 3.078125 -4.828125 C 3.078125 -1.546875 5.109375 0.421875 8.125 0.421875 Z M 8.125 0.421875 "/></g></g></g><g fill="#000000" fill-opacity="1"><g transform="translate(879.38463, 436.270896)"><g><path d="M 8.125 0.421875 C 11.203125 0.421875 13.15625 -1.546875 13.15625 -4.828125 L 13.15625 -16.65625 L 22.125 -16.65625 C 32.125 -16.65625 38.5625 -23.09375 38.5625 -33.671875 C 38.5625 -43.8125 30.59375 -49.84375 22.046875 -49.84375 L 8.125 -49.84375 C 5.25 -49.84375 3.078125 -47.734375 3.078125 -44.9375 L 3.078125 -4.828125 C 3.078125 -1.546875 5.109375 0.421875 8.125 0.421875 Z M 13.15625 -25.625 L 13.15625 -40.875 L 20.09375 -40.875 C 24.84375 -40.875 28.140625 -37.9375 28.140625 -33.1875 C 28.140625 -28.984375 24.78125 -25.625 20.09375 -25.625 Z M 13.15625 -25.625 "/></g></g></g></svg>